<?xml version="1.0" encoding="UTF-8"?>
<svg id="Capa_2" data-name="Capa 2" xmlns="http://www.w3.org/2000/svg" viewBox="0 0 2547.24 1796.78">
  <defs>
    <style>
      .cls-1 {
        fill: #fff;
      }
    </style>
  </defs>
  <g id="Capa_1-2" data-name="Capa 1">
    <g id="MESA_2" data-name="MESA 2">
      <g id="LOGO_SIN_FONDO" data-name="LOGO SIN FONDO">
        <path id="SILUETA" class="cls-1" d="m2467.24,80v200.67c0,.77-.62,1.39-1.39,1.39h-148.61c-.77,0-1.39.62-1.39,1.39v81.53c-.05,89.95-.02,265.5.01,420.38.03,163.35.06,317.64-.01,340.24v.69s0,.69,0,.69c1.06,74.93-26.37,148.38-77.23,206.83-24.78,28.48-53.84,51.97-86.36,69.83-33.16,18.2-68.55,29.75-105.2,34.31l-.43.05-.43.06c-8.98,1.22-18.32,2.04-27.77,2.45-34.81.47-71.95.7-116.78.7-32.81,0-66.25-.12-98.59-.24-32.48-.12-66.07-.24-99.17-.24-11.64,0-22.98.01-33.71.05-.44,0-.88,0-1.33,0-17.58,0-33.24,1.32-47.87,4.04l-.64.12-.64.13c-74.33,15.07-148.28,56.33-198,110.44-13.58,14.27-25.42,28.8-36.88,42.86-2.43,2.98-4.86,5.96-7.29,8.91l-.07.08-.07.08c-22.9,28-48.8,56.53-79.17,87.21-4.82,4.81-10.46,10.31-15.82,14.73l-.66.55-.65.56c-.93.8-2.44,1.78-4.14,2.74-.42.24-.94.24-1.36,0-1.71-.96-3.21-1.94-4.14-2.74l-.65-.56-.66-.55c-5.36-4.42-10.99-9.92-15.82-14.73-30.37-30.67-56.27-59.2-79.17-87.2l-.07-.08-.07-.08c-2.43-2.96-4.86-5.94-7.29-8.92-11.46-14.06-23.3-28.59-36.88-42.86-49.73-54.11-123.67-95.36-197.99-110.43l-.63-.13-.64-.12c-14.63-2.72-30.29-4.04-47.87-4.04-.44,0-.88,0-1.33,0-10.88-.03-21.91-.05-33.71-.05-33.11,0-66.69.12-99.17.24-32.34.12-65.77.24-98.59.24-44.8,0-81.95-.22-116.78-.7-9.46-.41-18.79-1.24-27.77-2.45l-.43-.06-.43-.05c-36.65-4.56-72.04-16.11-105.2-34.31-32.52-17.86-61.58-41.35-86.36-69.83-50.86-58.45-78.29-131.9-77.24-206.83v-.69s0-.69,0-.69c-.07-22.59-.04-176.84-.01-340.14.03-154.92.06-330.51.01-420.43v-81.58c0-.77-.62-1.39-1.39-1.39h-78.61s-75.33,0-75.33,0c-.77,0-1.39-.62-1.39-1.39V81.39c0-.77.62-1.39,1.39-1.39h2385.84M2547.24,0H1.39C.62,0,0,.62,0,1.39v359.27c0,.77.62,1.39,1.39,1.39h153.94c.77,0,1.39.62,1.39,1.39v1.58c.1,184.69-.14,716.52,0,760.83-2.77,196.37,148.15,367.73,338.9,391.48,12,1.63,24.23,2.67,36.29,3.16,39.67.55,79.33.72,119,.72,65.91,0,131.84-.47,197.76-.47,11.26,0,22.51.01,33.77.05.42,0,.84,0,1.27,0,11.1,0,22.26.65,33.24,2.7,60.19,12.2,118.13,45.8,155.46,86.67,14.36,15.03,27.55,31.82,40.81,47.95,26.51,32.42,54.97,63.29,84.43,93.03,6.91,6.9,14,13.72,21.56,19.96,14.54,12.54,38.53,24.03,56.92,25.69.1,0,.19,0,.28,0,18.39-1.66,42.38-13.15,56.92-25.69,7.56-6.24,14.64-13.06,21.55-19.96,29.46-29.74,57.92-60.61,84.44-93.03,13.26-16.13,26.45-32.91,40.81-47.95,37.33-40.87,95.27-74.47,155.46-86.67,10.98-2.04,22.14-2.7,33.24-2.7.42,0,.84,0,1.27,0,11.26-.03,22.52-.05,33.77-.05,65.92,0,131.85.47,197.76.47,39.67,0,79.33-.17,119-.72,12.06-.49,24.29-1.53,36.29-3.16,190.75-23.75,341.67-195.11,338.9-391.48.14-44.3-.1-576.14,0-760.83v-1.58c0-.77.62-1.39,1.39-1.39h148.61c.77,0,1.39-.62,1.39-1.39V0h0Z"/>
        <path id="PALABRA" class="cls-1" d="m947.4,578.14c-90.14,158.45-167.3,324.37-248.62,487.89-10.64,21.4-20.98,43.01-32.57,63.82-22.69,40.72-63.89,59.1-102.24,46.62-33.98-11.05-54.31-47.29-51.09-95.85,4.1-61.87,12.04-123.29,24.25-184.04,14.66-72.9,30.97-145.48,37.87-219.89,1.97-21.26,4.06-42.36-1.88-63.41-7.9-28.04-24.4-37-50.14-25.52-9.17,4.09-17.7,10.07-25.97,16.04-6.94,5.02-13.2,11.11-20.75,17.71-.68.59-1.73.39-2.16-.4-11.96-22.42-23.23-43.83-34.82-65.06-3.43-6.28-6.09-11.3.72-17.48,43.18-39.18,90.43-66.03,149.81-55.29,47.78,8.65,71.93,42.74,81.99,89.8,12.48,58.34.66,115.69-9.08,172.84-16.72,98.13-39.36,195.13-51.1,301.21-.16,1.47,1.77,2.15,2.57.91,25.91-40.25,43.59-78.83,62.1-116.72,73.04-149.56,140-302.47,219.81-448.28,33.21-60.68,70.97-117.9,127.93-156.87,42.74-29.25,88.8-45.36,140.4-32.97,32.62,7.83,35.18,13.29,23.39,46.11-7.14,19.87-14.8,39.54-21.27,59.65-3.21,9.99-7.22,15.08-17.67,11.01-43.35-16.88-76.29,4.61-106.55,33.61-39.87,38.21-67.59,86.45-94.95,134.55Zm1063.51,177.83c-4.11,21.98-10.39,47.56,11.26,60.85,23.1,14.18,40.8-6.21,57.58-21.15,2.43-2.16,4.73-4.47,8.95-8.54.81-.78,2.16-.33,2.35.77,4.49,26.22,8.66,50.35,12.71,74.5,1.95,11.63-5.86,17.99-12.94,23.82-29.38,24.17-62.51,35.89-99.91,30.95-38.51-5.08-65.45-33.08-73.43-75.21-12.65-66.72,9.86-125.95,35.01-184.58,3.43-8,10.3-14.52,9.91-24.23-.03-.76-.65-1.37-1.41-1.37-34.3.21-53.18,16.66-65.59,52.54-33.8,97.77-76.86,190.79-150.04,263.89-14.63,14.61-28.36,31.45-45.45,41.8-28.25,17.11-38.41,43.53-46.04,74.29-13.52,54.48-31.79,107.27-64,152.98-30.35,43.07-69.7,68.26-122.41,60.91-46.5-6.48-71.04-44.12-63.18-93.51,6.59-41.41,28.17-72.7,56.86-99.91,30.86-29.26,66.31-51.53,100.74-75.35,15.22-10.53,23.24-23.85,20.59-43.8-.14-1.04-1.33-1.56-2.19-.96-77.79,54.44-111.84,53.63-146.92-4.45-.51-.84-1.69-.92-2.3-.15-25.19,32.14-48.6,66.22-89.28,77.47-46.51,12.86-77.05,1.44-104.41-41.85-.52-.82-1.69-.88-2.29-.11-6.65,8.58-12.84,16.55-19.02,24.53-23.89,30.87-52.49,53.98-90.9,59.78-44.18,6.67-62.88-3.26-86.65-46.22-.47-.85-1.64-.98-2.28-.25-11.24,12.97-22.05,25.91-33.42,38.27-18.96,20.61-41.74,34.5-68.38,40.51-46.32,10.46-84.09-13.2-97.79-61.17-6.17-21.6-8.27-43.98-5.15-66.2,14.9-106.05,58.66-195.07,141.31-259.44,49.15-38.28,89.91-37.4,132.22-.25.68.59,1.72.41,2.15-.38,19.25-35.69,35.15-42.44,109.07-45.52.99-.04,1.71.94,1.37,1.88-18.64,50.85-36.68,100.4-54.99,149.82-12.68,34.23-27.22,67.9-33.25,104.33-2.58,15.57-7.51,35.2,10.56,43.93,16.69,8.06,29.99-4.49,40.62-16.81,37.09-42.97,58.43-95.6,78.56-148.64,48.7-128.33,97.13-256.78,144.69-385.59,5.12-13.86,11.65-19.81,24.69-21.41,24.5-2.99,48.9-6.83,77.07-10.88,1.05-.15,1.88.87,1.51,1.87-28.05,76.22-54.72,148.23-81.05,220.39-28.98,79.43-57.57,159.02-86.5,238.46-5.96,16.37-10.12,33.14-12.15,50.52-1.62,13.89-2.2,29.12,10.85,36.26,13.99,7.67,26.7-1.34,36.83-11.66,19.98-20.35,34.87-44.79,47.53-70.73,33.27-68.2,54.69-141.32,77.49-213.76,5.36-17.03,12.93-25.24,29.7-27.28,23.67-2.88,47.11-7.9,75.51-12.94,1.04-.18,1.91.82,1.57,1.82-19.49,58.08-37.7,112.29-55.86,166.52-9.77,29.16-21.54,57.74-25.07,88.81-1.39,12.25-4.41,27.1,8.56,33.76,14.2,7.29,27.43-1.18,36.96-11.88,24.74-27.76,43.28-60.37,56.03-95.79,20.49-56.91,39.49-114.45,57.61-172.25,5.83-18.6,13.14-29.41,33.28-30.67,22.8-1.42,45.4-6.56,71.91-10.84,1.04-.17,1.89.84,1.54,1.83-37.68,108.89-68.64,215.73-96.72,323.5-.02.1-.04.19-.04.29,0,.03,0,.05,0,.08l5.55,2.77c52.06-43.18,84.2-102.07,113.1-163.23,10.62-22.46,19.09-46.09,27.91-69.46,8.45-22.38,16.92-41.29,1-68.4-20.97-35.71,12.22-99.21,51.31-110.2,21.63-6.08,43.28-12.11,65.49-18.32.66-.18,1.38.13,1.65.76,5.43,12.7-3.09,23.52-5.52,34.56-7.13,32.32-7.79,32.4,23.95,26.09,21.56-4.29,43-9.2,64.51-13.74,20.73-4.38,41.49-8.65,65.21-13.59,1.02-.21,1.92.73,1.64,1.74-7.79,27.85-21.55,50.3-32.3,74.08-25.2,55.74-56.09,108.95-67.64,170.73Zm-956.8,23.47c-17.15-8.78-32.92,1.82-44.87,13.41-47.79,46.34-71.15,106.03-80.97,168.02-.02.11-.02.22-.01.33,1.78,21.58-2.72,41.66,17.23,49.54,19.52,7.71,33.41-5.78,44.82-19.56,39.4-47.57,62.86-103.88,75.3-165.15,3.25-16.01,7.62-36.79-11.5-46.57Zm497.34,314.24c.37-1.27-1.06-2.3-2.14-1.54-29.71,21.04-51.02,41.09-65.5,68.3-5.71,10.73-13.33,24.78-.75,33.29,11.23,7.6,22.71-2.11,30.42-12.08,18.58-24.01,27.52-52.72,37.95-87.97Z"/>
      </g>
    </g>
  </g>
</svg>